<?xml version="1.0" encoding="utf-8"?>
<!-- Generator: Adobe Illustrator 26.3.1, SVG Export Plug-In . SVG Version: 6.00 Build 0)  -->
<svg version="1.1" id="Capa_1" xmlns="http://www.w3.org/2000/svg" xmlns:xlink="http://www.w3.org/1999/xlink" x="0px" y="0px"
	 viewBox="0 0 1005 600" style="enable-background:new 0 0 1005 600;" xml:space="preserve">
<style type="text/css">
	.st0{fill:#FFFFFF;}
	.st1{fill:none;stroke:#000000;}
	.st2{font-family:'Helvetica';}
	.st3{font-size:10px;}
	.st4{fill:#7B7B7B;}
	.st5{font-family:'Arial-BoldMT';}
	.st6{font-size:12px;}
	.st7{fill:#1F77B4;}
	.st8{fill:#FF7F0E;}
	.st9{fill:#2CA02C;}
	.st10{font-family:'ArialMT';}
</style>
<rect id="background" y="-0.5" class="st0" width="1005" height="600"/>
<g id="visualization" transform="translate(50,50)">
	<g id="axis">
		<g transform="translate(0,500)">
			<path class="st1" d="M0,6V0h705v6"/>
			<g transform="translate(0,0)">
				<line class="st1" x1="0" y1="0" x2="0" y2="6"/>
				<text transform="matrix(1 0 0 1 -6.9507 16.1)" class="st2 st3">4.0</text>
			</g>
			<g transform="translate(88,0)">
				<line class="st1" x1="0" y1="0" x2="0" y2="6"/>
				<text transform="matrix(1 0 0 1 -6.9507 16.1)" class="st2 st3">4.5</text>
			</g>
			<g transform="translate(176,0)">
				<line class="st1" x1="0" y1="0" x2="0" y2="6"/>
				<text transform="matrix(1 0 0 1 -6.9507 16.1)" class="st2 st3">5.0</text>
			</g>
			<g transform="translate(264,0)">
				<line class="st1" x1="0" y1="0" x2="0" y2="6"/>
				<text transform="matrix(1 0 0 1 -6.9507 16.1)" class="st2 st3">5.5</text>
			</g>
			<g transform="translate(353,0)">
				<line class="st1" x1="0" y1="0" x2="0" y2="6"/>
				<text transform="matrix(1 0 0 1 -6.9507 16.1)" class="st2 st3">6.0</text>
			</g>
			<g transform="translate(441,0)">
				<line class="st1" x1="0" y1="0" x2="0" y2="6"/>
				<text transform="matrix(1 0 0 1 -6.9507 16.1)" class="st2 st3">6.5</text>
			</g>
			<g transform="translate(529,0)">
				<line class="st1" x1="0" y1="0" x2="0" y2="6"/>
				<text transform="matrix(1 0 0 1 -6.9507 16.1)" class="st2 st3">7.0</text>
			</g>
			<g transform="translate(617,0)">
				<line class="st1" x1="0" y1="0" x2="0" y2="6"/>
				<text transform="matrix(1 0 0 1 -6.9507 16.1)" class="st2 st3">7.5</text>
			</g>
			<g transform="translate(705,0)">
				<line class="st1" x1="0" y1="0" x2="0" y2="6"/>
				<text transform="matrix(1 0 0 1 -6.9507 16.1)" class="st2 st3">8.0</text>
			</g>
			<text transform="matrix(1 0 0 1 600.9902 -5)" class="st4 st5 st6">Longitud de sepalo (cm)</text>
		</g>
		<path class="st1" d="M-6,500h6V0h-6"/>
		<g transform="translate(0,500)">
			<line class="st1" x1="0" y1="0" x2="-6" y2="0"/>
			<text transform="matrix(1 0 0 1 -22.9014 3.2)" class="st2 st3">1.0</text>
		</g>
		<g transform="translate(0,458)">
			<line class="st1" x1="0" y1="0" x2="-6" y2="0"/>
			<text transform="matrix(1 0 0 1 -22.9014 3.2)" class="st2 st3">1.5</text>
		</g>
		<g transform="translate(0,417)">
			<line class="st1" x1="0" y1="0" x2="-6" y2="0"/>
			<text transform="matrix(1 0 0 1 -22.9014 3.2)" class="st2 st3">2.0</text>
		</g>
		<g transform="translate(0,375)">
			<line class="st1" x1="0" y1="0" x2="-6" y2="0"/>
			<text transform="matrix(1 0 0 1 -22.9014 3.2)" class="st2 st3">2.5</text>
		</g>
		<g transform="translate(0,333)">
			<line class="st1" x1="0" y1="0" x2="-6" y2="0"/>
			<text transform="matrix(1 0 0 1 -22.9014 3.2)" class="st2 st3">3.0</text>
		</g>
		<g transform="translate(0,292)">
			<line class="st1" x1="0" y1="0" x2="-6" y2="0"/>
			<text transform="matrix(1 0 0 1 -22.9014 3.2)" class="st2 st3">3.5</text>
		</g>
		<g transform="translate(0,250)">
			<line class="st1" x1="0" y1="0" x2="-6" y2="0"/>
			<text transform="matrix(1 0 0 1 -22.9014 3.2)" class="st2 st3">4.0</text>
		</g>
		<g transform="translate(0,208)">
			<line class="st1" x1="0" y1="0" x2="-6" y2="0"/>
			<text transform="matrix(1 0 0 1 -22.9014 3.2)" class="st2 st3">4.5</text>
		</g>
		<g transform="translate(0,167)">
			<line class="st1" x1="0" y1="0" x2="-6" y2="0"/>
			<text transform="matrix(1 0 0 1 -22.9014 3.2)" class="st2 st3">5.0</text>
		</g>
		<g transform="translate(0,125)">
			<line class="st1" x1="0" y1="0" x2="-6" y2="0"/>
			<text transform="matrix(1 0 0 1 -22.9014 3.2)" class="st2 st3">5.5</text>
		</g>
		<g transform="translate(0,83)">
			<line class="st1" x1="0" y1="0" x2="-6" y2="0"/>
			<text transform="matrix(1 0 0 1 -22.9014 3.2)" class="st2 st3">6.0</text>
		</g>
		<g transform="translate(0,42)">
			<line class="st1" x1="0" y1="0" x2="-6" y2="0"/>
			<text transform="matrix(1 0 0 1 -22.9014 3.2)" class="st2 st3">6.5</text>
		</g>
		<g transform="translate(0,0)">
			<line class="st1" x1="0" y1="0" x2="-6" y2="0"/>
			<text transform="matrix(1 0 0 1 -22.9014 3.2)" class="st2 st3">7.0</text>
		</g>
		<text transform="matrix(1 0 0 1 4 10.2949)" class="st4 st5 st6">Longitud de pétalo (cm)</text>
	</g>
	<g id="viz">
		<g>
			<circle class="st7" cx="194" cy="467" r="7.5"/>
		</g>
		<g>
			<circle class="st7" cx="159" cy="467" r="7.5"/>
		</g>
		<g>
			<circle class="st7" cx="123" cy="475" r="7.5"/>
		</g>
		<g>
			<circle class="st7" cx="106" cy="458" r="7.5"/>
		</g>
		<g>
			<circle class="st7" cx="176" cy="467" r="7.5"/>
		</g>
		<g>
			<circle class="st7" cx="247" cy="442" r="7.5"/>
		</g>
		<g>
			<circle class="st7" cx="106" cy="467" r="7.5"/>
		</g>
		<g>
			<circle class="st7" cx="176" cy="458" r="7.5"/>
		</g>
		<g>
			<circle class="st7" cx="71" cy="467" r="7.5"/>
		</g>
		<g>
			<circle class="st7" cx="159" cy="458" r="7.5"/>
		</g>
		<g>
			<circle class="st7" cx="247" cy="458" r="7.5"/>
		</g>
		<g>
			<circle class="st7" cx="141" cy="450" r="7.5"/>
		</g>
		<g>
			<circle class="st7" cx="141" cy="467" r="7.5"/>
		</g>
		<g>
			<circle class="st7" cx="53" cy="492" r="7.5"/>
		</g>
		<g>
			<circle class="st7" cx="317" cy="483" r="7.5"/>
		</g>
		<g>
			<circle class="st7" cx="300" cy="458" r="7.5"/>
		</g>
		<g>
			<circle class="st7" cx="247" cy="475" r="7.5"/>
		</g>
		<g>
			<circle class="st7" cx="194" cy="467" r="7.5"/>
		</g>
		<g>
			<circle class="st7" cx="300" cy="442" r="7.5"/>
		</g>
		<g>
			<circle class="st7" cx="194" cy="458" r="7.5"/>
		</g>
		<g>
			<circle class="st7" cx="247" cy="442" r="7.5"/>
		</g>
		<g>
			<circle class="st7" cx="194" cy="458" r="7.5"/>
		</g>
		<g>
			<circle class="st7" cx="106" cy="500" r="7.5"/>
		</g>
		<g>
			<circle class="st7" cx="194" cy="442" r="7.5"/>
		</g>
		<g>
			<circle class="st7" cx="141" cy="425" r="7.5"/>
		</g>
		<g>
			<circle class="st7" cx="176" cy="450" r="7.5"/>
		</g>
		<g>
			<circle class="st7" cx="176" cy="450" r="7.5"/>
		</g>
		<g>
			<circle class="st7" cx="212" cy="458" r="7.5"/>
		</g>
		<g>
			<circle class="st7" cx="212" cy="467" r="7.5"/>
		</g>
		<g>
			<circle class="st7" cx="123" cy="450" r="7.5"/>
		</g>
		<g>
			<circle class="st7" cx="141" cy="450" r="7.5"/>
		</g>
		<g>
			<circle class="st7" cx="247" cy="458" r="7.5"/>
		</g>
		<g>
			<circle class="st7" cx="212" cy="458" r="7.5"/>
		</g>
		<g>
			<circle class="st7" cx="264" cy="467" r="7.5"/>
		</g>
		<g>
			<circle class="st7" cx="159" cy="458" r="7.5"/>
		</g>
		<g>
			<circle class="st7" cx="176" cy="483" r="7.5"/>
		</g>
		<g>
			<circle class="st7" cx="264" cy="475" r="7.5"/>
		</g>
		<g>
			<circle class="st7" cx="159" cy="458" r="7.5"/>
		</g>
		<g>
			<circle class="st7" cx="71" cy="475" r="7.5"/>
		</g>
		<g>
			<circle class="st7" cx="194" cy="458" r="7.5"/>
		</g>
		<g>
			<circle class="st7" cx="176" cy="475" r="7.5"/>
		</g>
		<g>
			<circle class="st7" cx="88" cy="475" r="7.5"/>
		</g>
		<g>
			<circle class="st7" cx="71" cy="475" r="7.5"/>
		</g>
		<g>
			<circle class="st7" cx="176" cy="450" r="7.5"/>
		</g>
		<g>
			<circle class="st7" cx="194" cy="425" r="7.5"/>
		</g>
		<g>
			<circle class="st7" cx="141" cy="467" r="7.5"/>
		</g>
		<g>
			<circle class="st7" cx="194" cy="450" r="7.5"/>
		</g>
		<g>
			<circle class="st7" cx="106" cy="467" r="7.5"/>
		</g>
		<g>
			<circle class="st7" cx="229" cy="458" r="7.5"/>
		</g>
		<g>
			<circle class="st7" cx="176" cy="467" r="7.5"/>
		</g>
		<g>
			<circle class="st8" cx="529" cy="192" r="7.5"/>
		</g>
		<g>
			<circle class="st8" cx="423" cy="208" r="7.5"/>
		</g>
		<g>
			<circle class="st8" cx="511" cy="175" r="7.5"/>
		</g>
		<g>
			<circle class="st8" cx="264" cy="250" r="7.5"/>
		</g>
		<g>
			<circle class="st8" cx="441" cy="200" r="7.5"/>
		</g>
		<g>
			<circle class="st8" cx="300" cy="208" r="7.5"/>
		</g>
		<g>
			<circle class="st8" cx="405" cy="192" r="7.5"/>
		</g>
		<g>
			<circle class="st8" cx="159" cy="308" r="7.5"/>
		</g>
		<g>
			<circle class="st8" cx="458" cy="200" r="7.5"/>
		</g>
		<g>
			<circle class="st8" cx="212" cy="258" r="7.5"/>
		</g>
		<g>
			<circle class="st8" cx="176" cy="292" r="7.5"/>
		</g>
		<g>
			<circle class="st8" cx="335" cy="233" r="7.5"/>
		</g>
		<g>
			<circle class="st8" cx="353" cy="250" r="7.5"/>
		</g>
		<g>
			<circle class="st8" cx="370" cy="192" r="7.5"/>
		</g>
		<g>
			<circle class="st8" cx="282" cy="283" r="7.5"/>
		</g>
		<g>
			<circle class="st8" cx="476" cy="217" r="7.5"/>
		</g>
		<g>
			<circle class="st8" cx="282" cy="208" r="7.5"/>
		</g>
		<g>
			<circle class="st8" cx="317" cy="242" r="7.5"/>
		</g>
		<g>
			<circle class="st8" cx="388" cy="208" r="7.5"/>
		</g>
		<g>
			<circle class="st8" cx="282" cy="258" r="7.5"/>
		</g>
		<g>
			<circle class="st8" cx="335" cy="183" r="7.5"/>
		</g>
		<g>
			<circle class="st8" cx="370" cy="250" r="7.5"/>
		</g>
		<g>
			<circle class="st8" cx="405" cy="175" r="7.5"/>
		</g>
		<g>
			<circle class="st8" cx="370" cy="192" r="7.5"/>
		</g>
		<g>
			<circle class="st8" cx="423" cy="225" r="7.5"/>
		</g>
		<g>
			<circle class="st8" cx="458" cy="217" r="7.5"/>
		</g>
		<g>
			<circle class="st8" cx="493" cy="183" r="7.5"/>
		</g>
		<g>
			<circle class="st8" cx="476" cy="167" r="7.5"/>
		</g>
		<g>
			<circle class="st8" cx="353" cy="208" r="7.5"/>
		</g>
		<g>
			<circle class="st8" cx="300" cy="292" r="7.5"/>
		</g>
		<g>
			<circle class="st8" cx="264" cy="267" r="7.5"/>
		</g>
		<g>
			<circle class="st8" cx="264" cy="275" r="7.5"/>
		</g>
		<g>
			<circle class="st8" cx="317" cy="258" r="7.5"/>
		</g>
		<g>
			<circle class="st8" cx="353" cy="158" r="7.5"/>
		</g>
		<g>
			<circle class="st8" cx="247" cy="208" r="7.5"/>
		</g>
		<g>
			<circle class="st8" cx="353" cy="208" r="7.5"/>
		</g>
		<g>
			<circle class="st8" cx="476" cy="192" r="7.5"/>
		</g>
		<g>
			<circle class="st8" cx="405" cy="217" r="7.5"/>
		</g>
		<g>
			<circle class="st8" cx="282" cy="242" r="7.5"/>
		</g>
		<g>
			<circle class="st8" cx="264" cy="250" r="7.5"/>
		</g>
		<g>
			<circle class="st8" cx="264" cy="217" r="7.5"/>
		</g>
		<g>
			<circle class="st8" cx="370" cy="200" r="7.5"/>
		</g>
		<g>
			<circle class="st8" cx="317" cy="250" r="7.5"/>
		</g>
		<g>
			<circle class="st8" cx="176" cy="308" r="7.5"/>
		</g>
		<g>
			<circle class="st8" cx="282" cy="233" r="7.5"/>
		</g>
		<g>
			<circle class="st8" cx="300" cy="233" r="7.5"/>
		</g>
		<g>
			<circle class="st8" cx="300" cy="233" r="7.5"/>
		</g>
		<g>
			<circle class="st8" cx="388" cy="225" r="7.5"/>
		</g>
		<g>
			<circle class="st8" cx="194" cy="333" r="7.5"/>
		</g>
		<g>
			<circle class="st8" cx="300" cy="242" r="7.5"/>
		</g>
		<g>
			<circle class="st9" cx="405" cy="83" r="7.5"/>
		</g>
		<g>
			<circle class="st9" cx="317" cy="158" r="7.5"/>
		</g>
		<g>
			<circle class="st9" cx="546" cy="92" r="7.5"/>
		</g>
		<g>
			<circle class="st9" cx="405" cy="117" r="7.5"/>
		</g>
		<g>
			<circle class="st9" cx="441" cy="100" r="7.5"/>
		</g>
		<g>
			<circle class="st9" cx="634" cy="33" r="7.5"/>
		</g>
		<g>
			<circle class="st9" cx="159" cy="208" r="7.5"/>
		</g>
		<g>
			<circle class="st9" cx="582" cy="58" r="7.5"/>
		</g>
		<g>
			<circle class="st9" cx="476" cy="100" r="7.5"/>
		</g>
		<g>
			<circle class="st9" cx="564" cy="75" r="7.5"/>
		</g>
		<g>
			<circle class="st9" cx="441" cy="158" r="7.5"/>
		</g>
		<g>
			<circle class="st9" cx="423" cy="142" r="7.5"/>
		</g>
		<g>
			<circle class="st9" cx="493" cy="125" r="7.5"/>
		</g>
		<g>
			<circle class="st9" cx="300" cy="167" r="7.5"/>
		</g>
		<g>
			<circle class="st9" cx="317" cy="158" r="7.5"/>
		</g>
		<g>
			<circle class="st9" cx="423" cy="142" r="7.5"/>
		</g>
		<g>
			<circle class="st9" cx="441" cy="125" r="7.5"/>
		</g>
		<g>
			<circle class="st9" cx="652" cy="25" r="7.5"/>
		</g>
		<g>
			<circle class="st9" cx="652" cy="8" r="7.5"/>
		</g>
		<g>
			<circle class="st9" cx="353" cy="167" r="7.5"/>
		</g>
		<g>
			<circle class="st9" cx="511" cy="108" r="7.5"/>
		</g>
		<g>
			<circle class="st9" cx="282" cy="175" r="7.5"/>
		</g>
		<g>
			<circle class="st9" cx="652" cy="25" r="7.5"/>
		</g>
		<g>
			<circle class="st9" cx="405" cy="175" r="7.5"/>
		</g>
		<g>
			<circle class="st9" cx="476" cy="108" r="7.5"/>
		</g>
		<g>
			<circle class="st9" cx="564" cy="83" r="7.5"/>
		</g>
		<g>
			<circle class="st9" cx="388" cy="183" r="7.5"/>
		</g>
		<g>
			<circle class="st9" cx="370" cy="175" r="7.5"/>
		</g>
		<g>
			<circle class="st9" cx="423" cy="117" r="7.5"/>
		</g>
		<g>
			<circle class="st9" cx="564" cy="100" r="7.5"/>
		</g>
		<g>
			<circle class="st9" cx="599" cy="75" r="7.5"/>
		</g>
		<g>
			<circle class="st9" cx="687" cy="50" r="7.5"/>
		</g>
		<g>
			<circle class="st9" cx="423" cy="117" r="7.5"/>
		</g>
		<g>
			<circle class="st9" cx="405" cy="158" r="7.5"/>
		</g>
		<g>
			<circle class="st9" cx="370" cy="117" r="7.5"/>
		</g>
		<g>
			<circle class="st9" cx="652" cy="75" r="7.5"/>
		</g>
		<g>
			<circle class="st9" cx="405" cy="117" r="7.5"/>
		</g>
		<g>
			<circle class="st9" cx="423" cy="125" r="7.5"/>
		</g>
		<g>
			<circle class="st9" cx="353" cy="183" r="7.5"/>
		</g>
		<g>
			<circle class="st9" cx="511" cy="133" r="7.5"/>
		</g>
		<g>
			<circle class="st9" cx="476" cy="117" r="7.5"/>
		</g>
		<g>
			<circle class="st9" cx="511" cy="158" r="7.5"/>
		</g>
		<g>
			<circle class="st9" cx="317" cy="158" r="7.5"/>
		</g>
		<g>
			<circle class="st9" cx="493" cy="92" r="7.5"/>
		</g>
		<g>
			<circle class="st9" cx="476" cy="108" r="7.5"/>
		</g>
		<g>
			<circle class="st9" cx="476" cy="150" r="7.5"/>
		</g>
		<g>
			<circle class="st9" cx="405" cy="167" r="7.5"/>
		</g>
		<g>
			<circle class="st9" cx="441" cy="150" r="7.5"/>
		</g>
		<g>
			<circle class="st9" cx="388" cy="133" r="7.5"/>
		</g>
		<g>
			<circle class="st9" cx="335" cy="158" r="7.5"/>
		</g>
	</g>
	<g id="labels">
		<g transform="translate(194,467)">
		</g>
		<g transform="translate(159,467)">
		</g>
		<g transform="translate(123,475)">
		</g>
		<g transform="translate(106,458)">
		</g>
		<g transform="translate(176,467)">
		</g>
		<g transform="translate(247,442)">
		</g>
		<g transform="translate(106,467)">
		</g>
		<g transform="translate(176,458)">
		</g>
		<g transform="translate(71,467)">
		</g>
		<g transform="translate(159,458)">
		</g>
		<g transform="translate(247,458)">
		</g>
		<g transform="translate(141,450)">
		</g>
		<g transform="translate(141,467)">
		</g>
		<g transform="translate(53,492)">
		</g>
		<g transform="translate(317,483)">
		</g>
		<g transform="translate(300,458)">
		</g>
		<g transform="translate(247,475)">
		</g>
		<g transform="translate(194,467)">
		</g>
		<g transform="translate(300,442)">
		</g>
		<g transform="translate(194,458)">
		</g>
		<g transform="translate(247,442)">
		</g>
		<g transform="translate(194,458)">
		</g>
		<g transform="translate(106,500)">
		</g>
		<g transform="translate(194,442)">
		</g>
		<g transform="translate(141,425)">
		</g>
		<g transform="translate(176,450)">
		</g>
		<g transform="translate(176,450)">
		</g>
		<g transform="translate(212,458)">
		</g>
		<g transform="translate(212,467)">
		</g>
		<g transform="translate(123,450)">
		</g>
		<g transform="translate(141,450)">
		</g>
		<g transform="translate(247,458)">
		</g>
		<g transform="translate(212,458)">
		</g>
		<g transform="translate(264,467)">
		</g>
		<g transform="translate(159,458)">
		</g>
		<g transform="translate(176,483)">
		</g>
		<g transform="translate(264,475)">
		</g>
		<g transform="translate(159,458)">
		</g>
		<g transform="translate(71,475)">
		</g>
		<g transform="translate(194,458)">
		</g>
		<g transform="translate(176,475)">
		</g>
		<g transform="translate(88,475)">
		</g>
		<g transform="translate(71,475)">
		</g>
		<g transform="translate(176,450)">
		</g>
		<g transform="translate(194,425)">
		</g>
		<g transform="translate(141,467)">
		</g>
		<g transform="translate(194,450)">
		</g>
		<g transform="translate(106,467)">
		</g>
		<g transform="translate(229,458)">
		</g>
		<g transform="translate(176,467)">
		</g>
		<g transform="translate(529,192)">
		</g>
		<g transform="translate(423,208)">
		</g>
		<g transform="translate(511,175)">
		</g>
		<g transform="translate(264,250)">
		</g>
		<g transform="translate(441,200)">
		</g>
		<g transform="translate(300,208)">
		</g>
		<g transform="translate(405,192)">
		</g>
		<g transform="translate(159,308)">
		</g>
		<g transform="translate(458,200)">
		</g>
		<g transform="translate(212,258)">
		</g>
		<g transform="translate(176,292)">
		</g>
		<g transform="translate(335,233)">
		</g>
		<g transform="translate(353,250)">
		</g>
		<g transform="translate(370,192)">
		</g>
		<g transform="translate(282,283)">
		</g>
		<g transform="translate(476,217)">
		</g>
		<g transform="translate(282,208)">
		</g>
		<g transform="translate(317,242)">
		</g>
		<g transform="translate(388,208)">
		</g>
		<g transform="translate(282,258)">
		</g>
		<g transform="translate(335,183)">
		</g>
		<g transform="translate(370,250)">
		</g>
		<g transform="translate(405,175)">
		</g>
		<g transform="translate(370,192)">
		</g>
		<g transform="translate(423,225)">
		</g>
		<g transform="translate(458,217)">
		</g>
		<g transform="translate(493,183)">
		</g>
		<g transform="translate(476,167)">
		</g>
		<g transform="translate(353,208)">
		</g>
		<g transform="translate(300,292)">
		</g>
		<g transform="translate(264,267)">
		</g>
		<g transform="translate(264,275)">
		</g>
		<g transform="translate(317,258)">
		</g>
		<g transform="translate(353,158)">
		</g>
		<g transform="translate(247,208)">
		</g>
		<g transform="translate(353,208)">
		</g>
		<g transform="translate(476,192)">
		</g>
		<g transform="translate(405,217)">
		</g>
		<g transform="translate(282,242)">
		</g>
		<g transform="translate(264,250)">
		</g>
		<g transform="translate(264,217)">
		</g>
		<g transform="translate(370,200)">
		</g>
		<g transform="translate(317,250)">
		</g>
		<g transform="translate(176,308)">
		</g>
		<g transform="translate(282,233)">
		</g>
		<g transform="translate(300,233)">
		</g>
		<g transform="translate(300,233)">
		</g>
		<g transform="translate(388,225)">
		</g>
		<g transform="translate(194,333)">
		</g>
		<g transform="translate(300,242)">
		</g>
		<g transform="translate(405,83)">
		</g>
		<g transform="translate(317,158)">
		</g>
		<g transform="translate(546,92)">
		</g>
		<g transform="translate(405,117)">
		</g>
		<g transform="translate(441,100)">
		</g>
		<g transform="translate(634,33)">
		</g>
		<g transform="translate(159,208)">
		</g>
		<g transform="translate(582,58)">
		</g>
		<g transform="translate(476,100)">
		</g>
		<g transform="translate(564,75)">
		</g>
		<g transform="translate(441,158)">
		</g>
		<g transform="translate(423,142)">
		</g>
		<g transform="translate(493,125)">
		</g>
		<g transform="translate(300,167)">
		</g>
		<g transform="translate(317,158)">
		</g>
		<g transform="translate(423,142)">
		</g>
		<g transform="translate(441,125)">
		</g>
		<g transform="translate(652,25)">
		</g>
		<g transform="translate(652,8)">
		</g>
		<g transform="translate(353,167)">
		</g>
		<g transform="translate(511,108)">
		</g>
		<g transform="translate(282,175)">
		</g>
		<g transform="translate(652,25)">
		</g>
		<g transform="translate(405,175)">
		</g>
		<g transform="translate(476,108)">
		</g>
		<g transform="translate(564,83)">
		</g>
		<g transform="translate(388,183)">
		</g>
		<g transform="translate(370,175)">
		</g>
		<g transform="translate(423,117)">
		</g>
		<g transform="translate(564,100)">
		</g>
		<g transform="translate(599,75)">
		</g>
		<g transform="translate(687,50)">
		</g>
		<g transform="translate(423,117)">
		</g>
		<g transform="translate(405,158)">
		</g>
		<g transform="translate(370,117)">
		</g>
		<g transform="translate(652,75)">
		</g>
		<g transform="translate(405,117)">
		</g>
		<g transform="translate(423,125)">
		</g>
		<g transform="translate(353,183)">
		</g>
		<g transform="translate(511,133)">
		</g>
		<g transform="translate(476,117)">
		</g>
		<g transform="translate(511,158)">
		</g>
		<g transform="translate(317,158)">
		</g>
		<g transform="translate(493,92)">
		</g>
		<g transform="translate(476,108)">
		</g>
		<g transform="translate(476,150)">
		</g>
		<g transform="translate(405,167)">
		</g>
		<g transform="translate(441,150)">
		</g>
		<g transform="translate(388,133)">
		</g>
		<g transform="translate(335,158)">
		</g>
	</g>
</g>
<g transform="translate(0,15.5)">
	<g transform="translate(0, 0)">
		<rect x="810" y="50" class="st7" width="15" height="15"/>
		<text transform="matrix(1 0 0 1 830 62.5)" class="st10 st3">Iris Setosa</text>
	</g>
	<g transform="translate(0, 20.5)">
		<rect x="810" y="50" class="st8" width="15" height="15"/>
		<text transform="matrix(1 0 0 1 830 62.5)" class="st10 st3">Iris Versicolor</text>
	</g>
	<g transform="translate(0, 41)">
		<rect x="810" y="50" class="st9" width="15" height="15"/>
		<text transform="matrix(1 0 0 1 830 62.5)" class="st10 st3">Iris Virginica</text>
	</g>
</g>
<text transform="matrix(1 0 0 1 810 50)" class="st5 st6">Especies</text>
</svg>
